<?xml version="1.0" standalone="no"?><!DOCTYPE svg PUBLIC "-//W3C//DTD SVG 1.1//EN" "http://www.w3.org/Graphics/SVG/1.1/DTD/svg11.dtd"><svg t="1565680440929" class="icon" viewBox="0 0 1024 1024" version="1.1" xmlns="http://www.w3.org/2000/svg" p-id="8104" xmlns:xlink="http://www.w3.org/1999/xlink" width="200" height="200"><defs><style type="text/css"></style></defs><path d="M957.471 474.514c-10.318-31.184-30.961-55.426-72.238-51.967-6.878 0-17.204-10.392-20.641-20.788-20.64-51.962-37.838-103.929-58.475-155.895-10.325-34.638-34.403-55.43-65.359-62.358-44.722-10.396-89.443-17.319-130.72-27.715-65.359-10.392-120.399-10.392-192.637 0-24.078 3.468-48.16 6.932-75.678 10.396-65.359 13.855-116.96 41.571-137.597 110.861-10.319 41.566-27.521 83.141-44.722 124.712-3.438 6.932-13.757 20.788-17.196 20.788-44.722-6.928-65.361 20.783-75.678 58.899-3.441 6.923 0 17.319 0 20.783 17.198 3.459 34.397 10.387 48.156 13.855 0 65.822-3.441 131.644-3.441 197.466 0 34.643-3.439 72.75 0 107.393 0 17.319 6.88 41.566 17.204 48.503 6.879 10.387 123.834 6.928 147.916 0 10.319-3.468 13.76-55.43 24.078-86.614h433.436c10.318 27.715-10.324 65.826 24.076 86.614 10.321 6.928 137.598 6.928 141.038-3.468 6.879-3.468 13.76-27.715 13.76-41.571V571.515c0-17.324-3.441-38.111-6.881-55.43 17.199-3.468 34.404-10.396 51.601-13.855-0.002-6.937 3.438-17.324-0.002-27.716zM334.844 626.941c-3.439 10.391-17.204 17.319-27.523 20.788-17.198 3.459-34.396 3.459-48.156 3.459-24.082-3.459-48.161-3.459-68.798-6.928-30.964-6.928-37.842-27.711-27.523-69.286 6.88-27.711 27.523-27.711 44.722-20.783 37.836 13.86 75.677 27.715 110.074 45.034 10.324 3.465 20.644 20.788 17.204 27.716zM221.325 436.407c20.639-62.363 41.28-117.793 61.918-173.224 3.439-10.392 20.638-20.783 34.397-24.247 27.521-3.464 58.479-10.391 89.441-10.391 92.878 0 185.754 3.464 278.634 6.928 37.838 0 61.92 20.783 75.678 58.894 13.759 45.039 27.517 90.073 44.722 142.04-196.077 41.566-388.714 41.566-584.79 0zM843.952 644.26c-24.078 6.928-48.16 6.928-68.798 10.396-24.078-3.468-41.276 0-61.918-6.928-24.078-3.468-30.958-31.179-10.319-41.575 44.721-20.783 89.435-38.102 134.158-51.962 17.198-6.928 30.956 10.396 30.956 31.179s6.883 48.499-24.079 58.89z" p-id="8105" fill="#11c050"></path></svg>