<?xml version="1.0" standalone="no"?><!DOCTYPE svg PUBLIC "-//W3C//DTD SVG 1.1//EN" "http://www.w3.org/Graphics/SVG/1.1/DTD/svg11.dtd"><svg t="1565752429454" class="icon" viewBox="0 0 1024 1024" version="1.1" xmlns="http://www.w3.org/2000/svg" p-id="4426" width="128" height="128" xmlns:xlink="http://www.w3.org/1999/xlink"><defs><style type="text/css"></style></defs><path d="M504.88888933 135.11111133A369.664 369.664 0 0 0 135.11111133 504.88888933C135.11111133 709.23377733 300.54400033 874.66666633 504.88888933 874.66666633S874.66666633 709.23377733 874.66666633 504.88888933 709.23377733 135.11111133 504.88888933 135.11111133z m103.537777 421.546666c13.824 0 25.884444 11.150222 25.884445 24.974223a25.088 25.088 0 0 1-25.884445 24.917333H529.92000033v75.776a25.088 25.088 0 0 1-25.884445 24.917333 25.713778 25.713778 0 0 1-25.941333-24.917333v-75.776H401.35111133a25.713778 25.713778 0 0 1-25.884445-24.917333c0-13.824 11.093333-24.917333 25.884445-24.917334h76.8v-50.858666H401.35111133a25.713778 25.713778 0 0 1-25.884445-24.917334 25.031111 25.031111 0 0 1 25.884445-24.917333h76.8v-15.644444L382.80533333 345.03111133a25.201778 25.201778 0 0 1 0-36.010667 25.144889 25.144889 0 0 1 36.010667 0l86.869333 84.992 82.318222-84.992a25.998222 25.998222 0 0 1 36.010667-0.853333c10.126222 9.272889 10.126222 25.884444 0.853333 36.010666L529.92000033 442.93688933v11.946666h78.620444c13.824 0 25.884444 11.150222 25.884445 24.974222a25.088 25.088 0 0 1-25.884445 24.917334H529.92000033v50.801778h78.620444v1.137777h-0.113778z" fill="#e16531" p-id="4427"></path></svg>