<?xml version="1.0" standalone="no"?><!DOCTYPE svg PUBLIC "-//W3C//DTD SVG 1.1//EN" "http://www.w3.org/Graphics/SVG/1.1/DTD/svg11.dtd"><svg t="1561694908033" class="icon" viewBox="0 0 1024 1024" version="1.1" xmlns="http://www.w3.org/2000/svg" p-id="9731" xmlns:xlink="http://www.w3.org/1999/xlink" width="200" height="200"><defs><style type="text/css"></style></defs><path d="M359.633301 802.815697l-152.76915 83.330384a137.293231 137.293231 0 0 0-24.518028 17.446635A509.623355 509.623355 0 0 0 512.016036 1023.999614c124.696104 0 238.939683-44.630927 327.75716-118.706673a135.535043 135.535043 0 0 0-26.933122-18.045578l-163.588769-81.784724a62.386693 62.386693 0 0 1-34.487534-55.798318v-64.183523c4.598338-5.235923 9.853581-11.959543 15.475919-19.90037a376.406801 376.406801 0 0 0 50.852207-102.477244c20.982332-6.47245 36.43893-25.85116 36.43893-48.881491v-68.511371c0-15.070183-6.704299-28.536744-17.118183-37.965268v-99.038152s20.344747-154.121602-188.377287-154.121602-188.377287 154.121602-188.377287 154.121602v99.038152a51.084056 51.084056 0 0 0-17.118183 37.965268v68.511371c0 18.045578 9.486487 33.927232 23.687237 43.104587 17.118182 74.520123 61.942316 128.154518 61.942316 128.154518v62.599222a62.444656 62.444656 0 0 1-32.536139 54.735677z" fill="#E7ECED" p-id="9732"></path><path d="M520.768335 0.077283C238.047838-4.752904 4.923699 220.527011 0.093512 503.247508-2.650034 663.55175 68.79809 807.626563 182.558651 903.43815a136.037383 136.037383 0 0 1 24.28618-17.272749l152.76915-83.330383a62.406014 62.406014 0 0 0 32.516817-54.774319v-62.599222s-44.843455-53.634395-61.942316-128.154517a51.393188 51.393188 0 0 1-23.687236-43.104588v-68.51137c0-15.070183 6.704299-28.536744 17.118182-37.965269v-99.038151S303.274681 154.565979 511.996715 154.565979s188.377287 154.121602 188.377288 154.121603v99.038151c10.433204 9.428525 17.118182 22.895086 17.118182 37.965269v68.51137c0 23.030331-15.456598 42.409041-36.43893 48.881491a376.406801 376.406801 0 0 1-50.852207 102.477244c-5.622338 7.940827-10.877581 14.664447-15.475918 19.90037V749.645c0 23.629274 13.350636 45.24919 34.487534 55.798319l163.588768 81.784724a136.211269 136.211269 0 0 1 26.855839 18.006936c110.321468-92.005399 181.595705-229.569121 184.242648-384.482874C1028.768747 238.031608 803.508153 4.90747 520.768335 0.077283z" fill="#556080" p-id="9733"></path></svg>